<svg xmlns="http://www.w3.org/2000/svg" version="1.1" xmlns:xlink="http://www.w3.org/1999/xlink" xmlns:svgjs="http://svgjs.dev/svgjs" width="1000" height="409" viewBox="0 0 1000 409"><g transform="matrix(1,0,0,1,-0.6056348047761162,0.04658853823451636)"><svg viewBox="0 0 396 162" data-background-color="#000000" preserveAspectRatio="xMidYMid meet" height="409" width="1000" xmlns="http://www.w3.org/2000/svg" xmlns:xlink="http://www.w3.org/1999/xlink"><g id="tight-bounds" transform="matrix(1,0,0,1,0.24008861730862918,-0.01845316184349599)"><svg viewBox="0 0 395.52 162.036906323687" height="162.036906323687" width="395.52"><g><svg viewBox="0 0 395.52 162.036906323687" height="162.036906323687" width="395.52"><g><svg viewBox="0 0 395.52 162.036906323687" height="162.036906323687" width="395.52"><g><svg viewBox="0 0 395.52 162.036906323687" height="162.036906323687" width="395.52" id="textblock"><g><svg viewBox="0 0 395.52 162.036906323687" height="162.036906323687" width="395.52"><path d="M394.594 34.754C392.735 17.934 387.435 13.259 387.435 13.259 371.165-4.065 350.86-0.331 332.619 2.158 300.414 2.259 268.339 5.959 236.208 7.944 168.767 8.246 100.749 3.268 33.643 15.546 27.339 19.314-6.54 16.286 1.121 36.907 3.129 45.485 10.456 55.004 10.232 62.876 11.236 64.255 12.631 61.093 13.226 63.078 15.309 68.426 18.711 65.903 21.501 69.065 17.614 77.509 20.403 84.539 23.062 91.906 18.377 93.823 12.371 92.915 9.675 99.273 9.396 103.881 7.89 103.007 6.235 102.805 5.026 102.67 2.59 103.175 2.999 104.621 4.394 109.566-1.594 112.426 2.162 117.27-0.422 122.517 3.948 127.059 3.353 132.743 3.278 133.887 3.687 134.863 4.338 135.132 7.22 136.578 3.018 139.404 3.464 142.465 33.029 163.388 65.104 148.924 95.394 158.544 103.259 151.817 97.346 160.933 100.489 159.52 102.943 157.872 104.728 164.7 107.499 160.832 107.927 159.722 107.276 157.098 108.8 157.603 109.6 157.872 110.307 157.804 110.418 156.257 110.586 153.936 109.117 155.382 108.726 154.171 112.947 148.049 111.906 162.615 115.866 162.009 115.68 160.226 114.528 157.67 116.889 158.006 119.232 155.45 119.306 153.33 121.389 159.083 121.463 160.327 121.835 161.202 122.43 161.807 128.938 155.551 135.409 164.028 142.233 161.202 146.417 158.107 150.433 162.884 154.672 161.706 156.16 160.765 157.666 159.083 159.098 161.908 176.632 162.514 195.319 159.991 211.943 162.009 256.364 158.242 303.835 163.557 350.674 158.578 361.719 156.661 373.192 153.936 383.958 151.749 383.958 151.749 392.679 145.762 392.679 118.851S394.538 95.304 394.817 73.876C395.096 52.448 396.398 51.573 394.538 34.754Z" opacity="1" fill="#c10000" data-fill-palette-color="tertiary"></path><g transform="matrix(1,0,0,1,55.76832,26.230666666666668)"><svg width="283.98335999999995" viewBox="2.049999952316284 -35.5 93.28999328613281 36" height="109.57557299035366" data-palette-color="#ffffff"><path d="M2.05 0L2.05-35 10.15-35Q14.25-35 16.3-32.8 18.35-30.6 18.35-26.35L18.35-26.35 18.35-22.9Q18.35-18.65 16.3-16.45 14.25-14.25 10.15-14.25L10.15-14.25 7.55-14.25 7.55 0 2.05 0ZM7.55-19.25L10.15-19.25Q11.5-19.25 12.18-20 12.85-20.75 12.85-22.55L12.85-22.55 12.85-26.7Q12.85-28.5 12.18-29.25 11.5-30 10.15-30L10.15-30 7.55-30 7.55-19.25ZM29.3 0.5Q25.25 0.5 23.1-1.8 20.95-4.1 20.95-8.3L20.95-8.3 20.95-26.7Q20.95-30.9 23.1-33.2 25.25-35.5 29.3-35.5L29.3-35.5Q33.35-35.5 35.5-33.2 37.65-30.9 37.65-26.7L37.65-26.7 37.65-8.3Q37.65-4.1 35.5-1.8 33.35 0.5 29.3 0.5L29.3 0.5ZM29.3-4.5Q32.15-4.5 32.15-7.95L32.15-7.95 32.15-27.05Q32.15-30.5 29.3-30.5L29.3-30.5Q26.45-30.5 26.45-27.05L26.45-27.05 26.45-7.95Q26.45-4.5 29.3-4.5L29.3-4.5ZM41.34 0L41.34-35 46.84-35 46.84-20.25 53.84-35 59.34-35 52.8-22.15 59.45 0 53.7 0 49.05-15.6 46.84-11.15 46.84 0 41.34 0ZM66.34 0L66.34-30 60.59-30 60.59-35 77.59-35 77.59-30 71.84-30 71.84 0 66.34 0ZM76.49 0L82.19-35 89.64-35 95.34 0 89.84 0 88.84-6.95 88.84-6.85 82.59-6.85 81.59 0 76.49 0ZM83.24-11.6L88.19-11.6 85.74-28.9 85.64-28.9 83.24-11.6Z" opacity="1" transform="matrix(1,0,0,1,0,0)" fill="#ffffff" class="undefined-text-0" data-fill-palette-color="quaternary" id="text-0"></path></svg></g></svg></g></svg></g></svg></g><g></g></svg></g><defs></defs></svg><rect width="395.52" height="162.036906323687" fill="none" stroke="none" visibility="hidden"></rect></g></svg></g></svg>